<?xml version="1.0" encoding="UTF-8"?>
<!-- Generator: Adobe Illustrator 20.1.0, SVG Export Plug-In . SVG Version: 6.00 Build 0)  -->
<svg version="1.1" id="Layer_1" xmlns="http://www.w3.org/2000/svg" xmlns:xlink="http://www.w3.org/1999/xlink" x="0px" y="0px" width="18px" height="18px" viewBox="0 0 18 18" enable-background="new 0 0 18 18" xml:space="preserve">
<g>
	<path fill="#F7751F" d="M9,0.6c4.6,0,8.4,3.8,8.4,8.4s-3.8,8.4-8.4,8.4S0.6,13.6,0.6,9S4.4,0.6,9,0.6 M9,0C4,0,0,4,0,9s4,9,9,9   s9-4,9-9S14,0,9,0L9,0z"/>
</g>
<g>
	<g>
		<defs>
			<circle id="SVGID_1_" cx="9" cy="9" r="8.4"/>
		</defs>
		<clipPath id="SVGID_2_">
			<use xlink:href="#SVGID_1_" overflow="visible"/>
		</clipPath>
		<g clip-path="url(#SVGID_2_)">
			<path fill="#F7751F" d="M18.3,9c0,0.1,0,0.3,0,0.4C18.3,9.3,18.3,9.2,18.3,9z"/>
			<path fill="#F7751F" d="M18.3,8.9c0-0.1,0-0.1,0-0.2C18.3,8.8,18.3,8.9,18.3,8.9C18.3,9,18.3,8.9,18.3,8.9z"/>
			<path fill="#F7751F" d="M18.3,9.7c0,0.1,0,0.1,0,0.2C18.3,9.8,18.3,9.7,18.3,9.7z"/>
			<path fill="#F7751F" d="M7.6-0.2c0.1,0,0.1,0,0.2,0C7.8-0.2,7.7-0.2,7.6-0.2z"/>
			<path fill="#F7751F" d="M9.7-0.3c0.1,0,0.2,0,0.3,0C9.8-0.3,9.7-0.3,9.7-0.3z"/>
			<path fill="#F7751F" d="M6.8,0L6.8,0L6.8,0z"/>
			<path fill="#F7751F" d="M6.4,0.1L6.4,0.1L6.4,0.1z"/>
			<path fill="#F7751F" d="M7.2-0.1L7.2-0.1C7.3-0.1,7.2-0.1,7.2-0.1z"/>
			<path fill="#F7751F" d="M6,0.2L6,0.2L6,0.2z"/>
			<path fill="#F7751F" d="M18.2,7.4L18.2,7.4C18.2,7.4,18.2,7.4,18.2,7.4z"/>
			<path fill="#F7751F" d="M18.2,10.1v0.1C18.2,10.2,18.2,10.2,18.2,10.1z"/>
			<path fill="#F7751F" d="M12,0.2L12,0.2L12,0.2z"/>
			<path fill="#F7751F" d="M10.6-0.2c0.1,0,0.1,0,0.2,0C10.7-0.1,10.7-0.1,10.6-0.2z"/>
			<path fill="#F7751F" d="M11.1-0.1h0.1C11.2,0,11.1-0.1,11.1-0.1z"/>
			<path fill="#F7751F" d="M9-0.3c0.1,0,0.3,0,0.4,0C9.3-0.3,9.2-0.3,9-0.3z"/>
			<path fill="#F7751F" d="M8.5-0.3c0.1,0,0.3,0,0.4,0C8.8-0.3,8.7-0.3,8.5-0.3z"/>
			<path fill="#F7751F" d="M10.2-0.2c0.1,0,0.1,0,0.2,0C10.3-0.2,10.2-0.2,10.2-0.2z"/>
			<path fill="#F7751F" d="M-0.1,7.1C-0.1,7-0.1,7-0.1,7.1C-0.1,7-0.1,7-0.1,7.1z"/>
			<path fill="#F7751F" d="M8.1-0.3c0.1,0,0.2,0,0.2,0C8.2-0.3,8.2-0.3,8.1-0.3z"/>
			<path fill="#F7751F" d="M12.4,0.3L12.4,0.3L12.4,0.3z"/>
			<path fill="#F7751F" d="M18,6.5L18,6.5L18,6.5z"/>
			<path fill="#F7751F" d="M11.5,0.1C11.6,0.1,11.6,0.1,11.5,0.1C11.6,0.1,11.6,0.1,11.5,0.1z"/>
			<path fill="#F7751F" d="M18.2,7.7c0,0.1,0,0.1,0,0.2C18.2,7.8,18.2,7.8,18.2,7.7z"/>
			<path fill="#F7751F" d="M11.2,18c-0.1,0-0.2,0-0.3,0.1C11,18.1,11.1,18.1,11.2,18z"/>
			<path fill="#F7751F" d="M-0.3,8.4c0-0.1,0-0.2,0-0.3C-0.3,8.2-0.3,8.3-0.3,8.4z"/>
			<path fill="#F7751F" d="M11.6,17.9h-0.1H11.6z"/>
			<path fill="#F7751F" d="M-0.3,9c0-0.1,0-0.3,0-0.4C-0.3,8.7-0.3,8.8-0.3,9z"/>
			<path fill="#F7751F" d="M9.9,18.3c-0.1,0-0.2,0-0.3,0C9.7,18.3,9.8,18.3,9.9,18.3z"/>
			<path fill="#F7751F" d="M9.4,18.3c-0.1,0-0.3,0-0.4,0C9.1,18.3,9.3,18.3,9.4,18.3z"/>
			<path fill="#F7751F" d="M-0.2,7.9c0-0.1,0-0.2,0-0.2C-0.2,7.8-0.2,7.9-0.2,7.9z"/>
			<path fill="#F7751F" d="M-0.2,7.5c0-0.1,0-0.1,0-0.2C-0.2,7.4-0.2,7.4-0.2,7.5z"/>
			<path fill="#F7751F" d="M10.8,18.1c-0.1,0-0.2,0-0.2,0C10.6,18.2,10.7,18.1,10.8,18.1z"/>
			<path fill="#F7751F" d="M10.4,18.2c-0.1,0-0.3,0-0.4,0C10.1,18.2,10.2,18.2,10.4,18.2z"/>
			<path fill="#F7751F" d="M18.2,10.6v0.1C18.2,10.7,18.2,10.6,18.2,10.6L18.2,10.6z"/>
			<path fill="#F7751F" d="M12,17.8C11.9,17.8,11.9,17.8,12,17.8C11.9,17.8,11.9,17.8,12,17.8z"/>
			<path fill="#F7751F" d="M8.3-0.3c0.1,0,0.1,0,0.2,0C8.5-0.3,8.4-0.3,8.3-0.3z"/>
			<path fill="#F7751F" d="M-0.1,7.3c0-0.1,0-0.2,0-0.3C-0.1,7.1-0.1,7.2-0.1,7.3z"/>
			<path fill="#F7751F" d="M9.5-0.3c0.1,0,0.1,0,0.2,0C9.6-0.3,9.5-0.3,9.5-0.3z"/>
			<path fill="#F7751F" d="M11.9,17.8c-0.1,0-0.2,0.1-0.2,0.1S11.8,17.9,11.9,17.8z"/>
			<path fill="#F7751F" d="M10.9,18.1c-0.1,0-0.1,0-0.2,0C10.8,18.1,10.9,18.1,10.9,18.1z"/>
			<path fill="#F7751F" d="M10.5,18.2c-0.1,0-0.1,0-0.2,0C10.4,18.2,10.5,18.2,10.5,18.2z"/>
			<path fill="#F7751F" d="M11.5,18c-0.1,0-0.2,0.1-0.3,0.1C11.3,18,11.4,18,11.5,18z"/>
			<path fill="#F7751F" d="M-0.2,7.7c0-0.1,0-0.1,0-0.2C-0.2,7.6-0.2,7.6-0.2,7.7z"/>
			<path fill="#F7751F" d="M6.9-0.1c0.1,0,0.2-0.1,0.3-0.1C7.1-0.1,7-0.1,6.9-0.1z"/>
			<path fill="#F7751F" d="M6,0.2c0.1,0,0.3-0.1,0.4-0.1C6.2,0.1,6.1,0.2,6,0.2z"/>
			<path fill="#F7751F" d="M-0.3,8.1c0-0.1,0-0.1,0-0.2C-0.2,8-0.3,8.1-0.3,8.1z"/>
			<path fill="#F7751F" d="M6.4,0.1C6.5,0,6.7,0,6.8,0C6.7,0,6.5,0,6.4,0.1z"/>
			<path fill="#F7751F" d="M-0.3,8.6c0-0.1,0-0.1,0-0.2C-0.3,8.5-0.3,8.5-0.3,8.6z"/>
			<path fill="#F7751F" d="M7.8-0.2c0.1,0,0.2,0,0.3,0C8-0.2,7.9-0.2,7.8-0.2z"/>
			<path fill="#F7751F" d="M9.5,18.3H9.4C9.5,18.3,9.5,18.3,9.5,18.3z"/>
			<path fill="#F7751F" d="M10,18.3H9.9C9.9,18.3,9.9,18.3,10,18.3z"/>
			<path fill="#F7751F" d="M7.3-0.2c0.1,0,0.2,0,0.3-0.1C7.5-0.2,7.4-0.2,7.3-0.2z"/>
			<path fill="#F7751F" d="M10.8-0.1c0.1,0,0.2,0,0.3,0.1C11-0.1,10.9-0.1,10.8-0.1z"/>
			<path fill="#F7751F" d="M4.5,3.1V2.9H4.3L4,3l0.1,0.1H4.5z"/>
			<polygon fill="#F7751F" points="5.5,4.5 5.3,4.6 5.3,4.7 5.4,4.7 6,4.7 6,4.6 5.9,4.6 5.9,4.5    "/>
			<path fill="#F7751F" d="M1.8,4.4C1.7,4.6,1.6,4.8,1.4,5l0.4-0.4V4.4z"/>
			<polygon fill="#F7751F" points="5.2,3.9 5,3.8 4.8,3.9 4.9,4.2 5.1,4.1    "/>
			<path fill="#F7751F" d="M16.5,5.9l-0.2-0.2V5.3L16,5.4l-0.1,0.5l-0.3-0.4V5.2l-0.3-0.3l-0.1-0.1h-0.4l0.1,0.3l0.4,0.2l0.1,0.1     h-0.1v0.3l-0.2,0.1h-0.2l-0.1-0.2h0.3l0.1-0.1L14.5,5l-0.1-0.2L14.1,5l-0.3-0.1l-0.4,0.5l-0.1,0.2H13h-0.4l-0.2-0.1L12.3,5     l0.1-0.2L12.9,5l0.4,0.1l0.1-0.2h-0.2l0.1-0.4l0.4-0.1L14,3.9l0.3-0.1h0.3h0.1l-0.1-0.4l-0.3,0.1l-0.1-0.3H14V3l0.2-0.2l0.4-0.2     l0.1-0.2C13.1,1.3,11.2,0.5,9,0.5c-1.9,0-3.6,0.6-5,1.6h0.4l0.2,0.1L5,2.3v0.1h0.6L5.5,2.3L5,2.2l0.1-0.1V2H4.6l0.5-0.4h0.5     l0.2,0.3h0.4l0.2-0.2l0.2,0.1L6.3,2.1H5.9v0.3h0.5l0.1-0.1h0.4V2.1L6.7,2l0.1-0.2L7,1.7h0.6L7.2,2.1l0.1,0.2h0.3V1.9l0.3-0.2     l0.6-0.1L9.3,2v0.3l0.3,0.1L9.3,2.7H8.9L8.8,3L8,2.8l0.7-0.3L8.4,2.2L7.9,2.3v0.1l0,0l0,0L7.6,2.5H7.3v0.1h0.1l0,0H7.2v0.1L7,2.9     V2.6L6.6,2.8L5.9,3.2L6,3.5l0.2,0.1l0.4,0.1v0.5h0.2L7,3.8l0.5-0.1V3.1l0.3-0.2L8.3,3v0.4h0.2l0.4-0.2v0.5l0.3,0.2v0.3L8.9,4.3     v0.1l0.4,0.2v0.2H9.2l0,0L8.7,4.6V4.4l0.1-0.1l0,0H8.7v0.1H8.4l0,0l0,0H8.3L8.2,4.3H8.1H7.9H7.8v0.2H8h0.2l0,0L7.9,4.7V4.6H7.8     L7.4,4.9l0,0L6.8,5.3L6.3,5.8V6L5.8,6.4L5.5,6.7v0.5L5.2,7V6.7h-1L3.6,7L3.4,7.4L3.3,7.7L3.4,8l0.4,0.1l0.7-0.4l0.1,0.2L4.4,8.3     l0.5,0.1L5,9.2l0.7,0.1l0.4-0.5l0.5,0.1l0.2,0.3h0.5V9.1l0.3,0.1l0.3,0.5h0.5L8.6,10v0.4l0.6,0.2H10l0.2,0.4l0.3,0.1l-0.1,0.3     L10,11.9l-0.1,1l-0.3,0.3H9.1L9,13.3l0.1,0.5l-0.5,0.7l-0.2,0.3L7.9,15l-0.3,0.1v0.1l0.2,0.1v0.2l-0.2,0.2l0.1,0.2H8v0.2     l-0.1,0.2v0.2l0.4,0.3V17H7.8l-0.5-0.4l-0.4-0.7L7,15.2l-0.3-0.4L6.6,14H6.4v-1.5l-0.5-0.4L5.6,12l-0.1-0.3L5,11l0.1-0.3v-0.5     l0.4-0.3V9.4H4.8L4.3,8.8L3.9,8.7H3.7V8.5H3.4v0.1L2.7,8.3L2.4,7.8l0.1-0.2L2,6.9V6.4H1.8l0.1,0.5l0.3,0.5v0.2H1.9L1.5,7V6.3     L1.1,6.1V5.7C1.2,5.4,1.3,5.2,1.4,5C1.3,5.2,1.2,5.4,1.1,5.7C0.7,6.7,0.5,7.8,0.5,9c0,4.7,3.8,8.5,8.5,8.5c2.7,0,5.1-1.2,6.6-3.2     h-0.3v-0.6L15,13.4v-0.7l-0.2-0.2v-0.3l0.3-0.6l-0.6-1.1l0.1-0.7L14,9.7l-0.2-0.2h-0.4l-0.2,0.2h-0.6v0.1h-0.4l-0.8-0.9V8.2     l0.1-0.1l0.1-0.3h-0.2l-0.1-0.3l0.9-0.7V6.3L12.7,6h0.2h0.4l0.3-0.2l1-0.1v0.5l0.8,0.2l0.1,0.1h0.1V6.4H16l0.4,0.3h0.7l0,0     c0-0.3-0.1-0.6-0.1-0.8H16.5z M12.9,3.5L13,3.4l0.3-0.1l0.1,0.3l0.1,0.2L13.6,4l0.2,0.1l-0.2,0.2h-0.3H13V4h0.2V3.9L13,3.8     l-0.1-0.1V3.5z M12.5,4l0.2-0.3l0.2-0.1L13,3.8V4l-0.4,0.2h-0.2L12.5,4L12.5,4z M7.8,5.1H7.6V5l0.1-0.1L7.8,5.1L7.8,5.1z      M8.5,4.9H8.4V5H8.2H8.1V4.9H8l0,0h0.2l0.1-0.1L8.5,4.9L8.5,4.9L8.5,4.9z"/>
			<path fill="#F7751F" d="M16.8,5.5c-0.1-0.1-0.1-0.3-0.2-0.4l-0.1,0.1v0.4L16.8,5.5L16.8,5.5z"/>
			<path fill="#F7751F" d="M15.5,3.9l0.2-0.3c-0.1-0.2-0.3-0.3-0.4-0.5v0.4l-0.4,0.2v0.1L15.5,3.9z"/>
			<polygon fill="#F7751F" points="4.5,2.6 4.5,2.5 4.2,2.5 4.2,2.5 4,2.5 4,2.5 4,2.7 4.4,2.7    "/>
			<polygon fill="#F7751F" points="6,4.5 6,4.7 6.2,4.7    "/>
			<polygon fill="#F7751F" points="6.3,5 6.3,5.1 6.3,5.3 6.6,5.3 6.6,5.1    "/>
			<polygon fill="#F7751F" points="6.4,4.8 6.4,4.9 6.5,4.9 6.6,4.9    "/>
			<path fill="#F7751F" d="M17.3,7.1l0.1,0.1C17.3,7.1,17.3,7.1,17.3,7.1L17.3,7.1z"/>
			<path fill="#F7751F" d="M17.3,13.2c-1.1,2.1-3,3.8-5.3,4.6c3.2-1.1,5.6-3.8,6.2-7.1c0,0.2-0.1,0.3-0.1,0.5     C17.9,11.9,17.6,12.6,17.3,13.2z"/>
			<polygon fill="#F7751F" points="5.9,5.1 6.1,5.1 6.2,5 6.2,4.8 5.9,4.8    "/>
			<polygon fill="#F7751F" points="5.9,5.2 5.8,5.2 5.7,5.4 6,5.4 6.1,5.3 6.1,5.1    "/>
			<polygon fill="#F7751F" points="5.2,5.2 5.4,5.3 5.7,4.8 5.5,4.8 5.3,5    "/>
			<path fill="#F7751F" d="M18.3,9.9c0,0.1,0,0.2,0,0.3C18.2,10,18.3,10,18.3,9.9z"/>
			<path fill="#F7751F" d="M18.2,7.5c0,0.1,0,0.2,0,0.2C18.2,7.6,18.2,7.5,18.2,7.5z"/>
			<path fill="#F7751F" d="M18.3,9.4c0,0.1,0,0.1,0,0.2C18.3,9.6,18.3,9.5,18.3,9.4z"/>
			<path fill="#F7751F" d="M18,6.5c0.1,0.3,0.1,0.6,0.2,0.9C18.1,7.1,18,6.8,18,6.5z"/>
			<path fill="#F7751F" d="M9.9-0.3c0.1,0,0.2,0,0.2,0C10.1-0.2,10-0.2,9.9-0.3z"/>
			<path fill="#F7751F" d="M18.2,10.3c0,0.1,0,0.2,0,0.3C18.2,10.5,18.2,10.4,18.2,10.3z"/>
			<path fill="#F7751F" d="M11.2,0c0.1,0,0.2,0.1,0.3,0.1C11.4,0,11.3,0,11.2,0z"/>
			<path fill="#F7751F" d="M12,0.2c0.1,0,0.2,0.1,0.4,0.1C12.3,0.3,12.2,0.2,12,0.2z"/>
			<path fill="#F7751F" d="M10.4-0.2c0.1,0,0.2,0,0.3,0C10.5-0.2,10.5-0.2,10.4-0.2z"/>
			<path fill="#F7751F" d="M11.6,0.1c0.1,0,0.2,0.1,0.3,0.1C11.9,0.1,11.7,0.1,11.6,0.1z"/>
			<path fill="#F7751F" d="M-0.3,9L-0.3,9L-0.3,9c0,5.1,4.2,9.3,9.3,9.3l0,0l0,0C3.9,18.3-0.3,14.1-0.3,9z"/>
			<path fill="#F7751F" d="M18.3,8.7c0-0.3,0-0.6-0.1-0.9c0,0.1,0,0.1,0,0.2C18.3,8.3,18.3,8.5,18.3,8.7z"/>
			<path fill="#F7751F" d="M9-0.3L9-0.3L9-0.3L9-0.3L9-0.3z"/>
			<path fill="#F7751F" d="M2.7,2.2c0.9-0.9,2-1.5,3.3-2C3,1.2,0.6,3.8-0.1,7c0.3-1.4,0.9-2.6,1.7-3.7C2,2.9,2.3,2.5,2.7,2.2z"/>
			<path fill="#F7751F" d="M18.3,9L18.3,9L18.3,9L18.3,9L18.3,9z"/>
			<path fill="#F7751F" d="M15.7,2.5c0,0.1,0.1,0.1,0.1,0.2c0.7,0.8,1.3,1.7,1.7,2.7c0,0.1,0,0.1,0.1,0.2c0.1,0.3,0.2,0.6,0.3,0.9     c-0.8-2.8-2.9-5.1-5.5-6.1c1.1,0.4,2,1,2.8,1.8C15.4,2.3,15.5,2.4,15.7,2.5z"/>
		</g>
	</g>
</g>
</svg>